<?xml version="1.0" encoding="utf-8"?>
<!-- Generator: Adobe Illustrator 21.0.0, SVG Export Plug-In . SVG Version: 6.00 Build 0)  -->
<svg version="1.1" id="Layer_1" xmlns="http://www.w3.org/2000/svg" xmlns:xlink="http://www.w3.org/1999/xlink" x="0px" y="0px"
	 viewBox="0 0 640 308" style="enable-background:new 0 0 640 308;" xml:space="preserve">
<style type="text/css">
	.st0{filter:url(#filter3203);}
	.st1{fill:#666666;}
	.st2{fill:none;stroke:#000000;stroke-width:0.8691;}
	.st3{fill:#D2C6AF;fill-opacity:0.982;stroke:#000000;stroke-width:0.8928;}
	.st4{fill:#D2C6AF;fill-opacity:0.982;stroke:#000000;stroke-width:0.9228;}
	.st5{filter:url(#filter3321);}
	.st6{fill:#D3C7B0;stroke:#000000;stroke-width:0.8691;}
	.st7{fill:#666666;stroke:#000000;stroke-width:0.8691;}
	.st8{fill:#D2C6AF;fill-opacity:0.982;stroke:#000000;stroke-width:0.8262;}
	.st9{fill:#D2C6AF;fill-opacity:0.982;stroke:#000000;stroke-width:0.9801;}
	.st10{fill:#28220B;fill-opacity:0.982;stroke:#000000;stroke-width:0.9801;}
	.st11{fill:#D2C6AF;fill-opacity:0.982;stroke:#000000;stroke-width:0.7916;}
	.st12{fill:#D3C7B0;stroke:#000000;stroke-width:0.9801;}
	.st13{fill:none;stroke:#000000;stroke-width:0.9801;}
</style>
<filter  height="1.241113" id="filter3321" width="1.913653" x="-0.456826" y="-0.120557">
	<feGaussianBlur  id="feGaussianBlur3323" stdDeviation="6.379102"></feGaussianBlur>
</filter>
<filter  height="1.319747" id="filter3203" width="1.034045" x="-0.017023" y="-0.159874">
	<feGaussianBlur  id="feGaussianBlur3205" stdDeviation="3.735905"></feGaussianBlur>
</filter>
<g>
	<title>Layer 1</title>
	<g id="layer1">
		<g id="path2186" marker-end="none" marker-start="none" marker-mid="none" class="st0">
			<path class="st1" d="M80.6,227.9c18.7-1.7,42.8-4.2,63.3-7.1c26.5-3.8,51.3-4.2,77.9-4.2c22.7,0,41.5,3.7,63.8,6.6
				c22.3,2.9,44.7,6.9,67.2,7.6c21,0.6,41.8-1.4,62.8-1.4c17,0,33.8-1.6,50.8-2.6c8.1-0.5,16.2,0.3,24.3-0.7c3.4-0.4,6.8-1.4,10.1-2
				c4.4-0.7,11.4,1.8,15.9,2.3c10.9,1.1,22,0.5,32.9,1.4c2.4,0.2,2.9,0.9,4.5,2.6c1.7,1.8,3.3,3.4,4.8,5.5c1.2,1.7-0.1,1.8,3,3.1
				c6.3,2.8,11.3,5.7,17.1,9.3c5.4,3.3,11.8,8.5,16.2,13c1.1,1.1-1.9,5.5-2.5,6.5c-2.3,4.2-7.5,5.2-11.9,5.5
				c-10.7,0.9-22.8-1.2-33.5-2c-16.5-1.3-32.9-2.3-49.4-3.1c-18.5-0.8-37.3,3.4-55.9,3.4c-19.9,0-39.8-0.3-59.7-1
				c-21.7-0.8-43.4-1.9-65.1-2.6c-19.8-0.6-39.5,0.3-59.3,0.3c-15.6,0-24.4-4.5-39.9-3.4c-13.3,1-32,6.2-45.1,4.3
				c-12.9-1.9-28.6,0.1-41.8,0.1c-11.9,0-23.8,0.6-35.6,1c-10.2,0.4-19.9-0.3-30-0.7c-7-0.3-13.3-0.3-13.3-8.5
				c0-6.2,1.5-14.6,3.5-20.5c1.8-5.2,2.2-8.4,6.4-12.5c3-2.9,8.4-4,12.4-4.3C77.9,223.6,78.4,225.1,80.6,227.9z"/>
			<path class="st2" d="M80.6,227.9c18.7-1.7,42.8-4.2,63.3-7.1c26.5-3.8,51.3-4.2,77.9-4.2c22.7,0,41.5,3.7,63.8,6.6
				c22.3,2.9,44.7,6.9,67.2,7.6c21,0.6,41.8-1.4,62.8-1.4c17,0,33.8-1.6,50.8-2.6c8.1-0.5,16.2,0.3,24.3-0.7c3.4-0.4,6.8-1.4,10.1-2
				c4.4-0.7,11.4,1.8,15.9,2.3c10.9,1.1,22,0.5,32.9,1.4c2.4,0.2,2.9,0.9,4.5,2.6c1.7,1.8,3.3,3.4,4.8,5.5c1.2,1.7-0.1,1.8,3,3.1
				c6.3,2.8,11.3,5.7,17.1,9.3c5.4,3.3,11.8,8.5,16.2,13c1.1,1.1-1.9,5.5-2.5,6.5c-2.3,4.2-7.5,5.2-11.9,5.5
				c-10.7,0.9-22.8-1.2-33.5-2c-16.5-1.3-32.9-2.3-49.4-3.1c-18.5-0.8-37.3,3.4-55.9,3.4c-19.9,0-39.8-0.3-59.7-1
				c-21.7-0.8-43.4-1.9-65.1-2.6c-19.8-0.6-39.5,0.3-59.3,0.3c-15.6,0-24.4-4.5-39.9-3.4c-13.3,1-32,6.2-45.1,4.3
				c-12.9-1.9-28.6,0.1-41.8,0.1c-11.9,0-23.8,0.6-35.6,1c-10.2,0.4-19.9-0.3-30-0.7c-7-0.3-13.3-0.3-13.3-8.5
				c0-6.2,1.5-14.6,3.5-20.5c1.8-5.2,2.2-8.4,6.4-12.5c3-2.9,8.4-4,12.4-4.3C77.9,223.6,78.4,225.1,80.6,227.9z"/>
		</g>
		<path id="path2176" marker-end="none" marker-start="none" marker-mid="none" class="st3" d="M103.3,83.4l4-55.3l428.5,3.3
			l2.2,145.2l-436.6,8.9C101.5,185.6,103.3,83.4,103.3,83.4z"/>
		<path id="path3137" marker-end="none" marker-start="none" marker-mid="none" class="st4" d="M91.7,177.4c0,0,114.8,6.1,228.9,6.1
			s227.4-6.1,227.4-6.1l0.1,61.2c0,0-134.7,6.2-225,5.8c-89.6-0.4-230-7.4-230-7.4L91.7,177.4z"/>
		<g id="path2192" marker-end="none" marker-start="none" marker-mid="none" class="st5">
			<path class="st1" d="M305.7,45.5c6.9-0.4,16,0.2,23.7,1.6c1.6,0.3,2.7,10.9,2.9,12.6c0.9,7.3,2.7,13.1,1.2,19.9
				c-1.1,4.7-0.9,9.8-1,14.6c-0.1,10.9,2.1,27.4,4.1,38.1c1.1,6,0.1,11.5,0.1,17.7c0,4,0,8.1,0,12.1c0,4.4-2.2,5.9-5.5,8.1
				c-4.2,2.8-15.9,4.2-20.9,5.3c-11,2.4-5.7-20.7-5-25.7c1.3-9.5,0.7-21.4-0.4-30.9c-1.1-9.5-1-19-1-28.6c0-10.3,0.5-20.7,1.9-30.8
				C306.6,54.1,307,50.8,305.7,45.5z"/>
			<path class="st2" d="M305.7,45.5c6.9-0.4,16,0.2,23.7,1.6c1.6,0.3,2.7,10.9,2.9,12.6c0.9,7.3,2.7,13.1,1.2,19.9
				c-1.1,4.7-0.9,9.8-1,14.6c-0.1,10.9,2.1,27.4,4.1,38.1c1.1,6,0.1,11.5,0.1,17.7c0,4,0,8.1,0,12.1c0,4.4-2.2,5.9-5.5,8.1
				c-4.2,2.8-15.9,4.2-20.9,5.3c-11,2.4-5.7-20.7-5-25.7c1.3-9.5,0.7-21.4-0.4-30.9c-1.1-9.5-1-19-1-28.6c0-10.3,0.5-20.7,1.9-30.8
				C306.6,54.1,307,50.8,305.7,45.5z"/>
		</g>
		<g id="g2182">
			<path id="path2178" marker-end="none" marker-start="none" marker-mid="none" class="st6" d="M112.4,33.1c18-5.3,35.7,1.2,54-2.4
				c16.9-0.4,33.8-1.4,50.5-4.7c14.9-0.5,28.9,10,42.7,9.5c9-0.3,12.3,0.9,24.9-1.2c10.2-1.1,17.2-0.5,32.8-0.7
				c-1.9,16.1-4.1,35.7,1.8,51.7c5.3,21.3-0.1,43.2-1.7,64.5c2,12.6-20.7,7.6-29.8,9.4c-19.9-0.9-40.6,2.2-59.9-4.7
				c-20.4-4.2-41.6-0.3-61.8-4.8c-14.3-4.5-29.8-1.7-43.8-7.5c-11.2-1.5-28,3.1-19.2-14.6c4-15.4,1.8-32,7.4-47.1
				C114.8,64.4,109.9,49,112.4,33.1z"/>
			<path id="path2180" marker-end="none" marker-start="none" marker-mid="none" class="st6" d="M322.2,31.6
				c2.1-7.4,39.2-3.6,47.4-4c15.7-0.7,31.6,0.5,47.1,2.4c6.5,0.8,11.4,1.4,18.8,0.7c12.4-1.3,25.4,0.9,37.8,1.3
				c7.9,0.3,16.3,0.6,24.1,1.5c7,0.8,14.3,1.9,21.4,1.9c5.7,0,6.4,1.4,11.3-0.9c1.4-0.7,0.9,12.8,0.5,15.6
				c-1.6,12-6.2,24.3-3.9,36.2c1.6,8.4,7.1,15.5,9.7,23.5c2.1,6.2,1.3,14.1,1.3,20.6c0,3.7,1,8.5,1,12.3c0,2.1-28.3,2.2-30.7,2.2
				c-15.5,0-31.1-1.2-46.6-0.3c-10.9,0.6-18.1,5.8-28.8,7.6c-12.8,2.1-25.6,2-38.4,5.5c-8.7,2.3-19.6,2.2-28.4,2.2
				c-11.8,0-21.1,1.1-32.4-0.8c-3.2-0.5-7.1-0.5-9.6-1c-1.5-0.3,1-19.5,1.2-21.4c0.8-9.3,3.5-17.6-0.9-26.2
				c-4-7.7-7.2-13.8-3.7-21.3c3.6-7.6,4.6-16.3,2.7-24.5c-1.6-7.3,0.9-16.1,1.8-23.5C325.3,38,322.8,34.9,322.2,31.6z"/>
		</g>
		<path id="path2190" marker-end="none" marker-start="none" marker-mid="none" class="st7" d="M94.7,102.1c3.2-0.4,6.7,1.4,9.9,2.4
			c3.3,0.9,6,3.7,6.8,7.1c0.9,4-1.6,8.3-1.3,12.3c0.2,2.6,1.6,6.7,3.4,8.5c2.6,2.6,8.6,3.1,12,3.9c4.7,1.1,9.5,1.6,14.2,2.6
			c3.6,0.7,7.9-0.2,11.2,1.6c1.5,0.8,1.8,1.4,3.1,2.4c1.6,1.4,1.4,5.9,1.4,7.8c0,5.3-5.8,3-9.1,2.5c-7.1-1.2-14.1-2.2-21.4-2.9
			c-6.1-0.6-12.3-1.3-18.4-1.8c-5.4-0.4-14.2,0.3-17-5.4c-1.9-3.8,0.2-9.5,1.4-13.3c1.3-4.1,1.4-8.4,1.4-12.6c0-3.2-0.1-6.7-0.4-10
			c-0.1-1.6,0-3.2,1-4.2c0.3-0.3,0.7-0.8,0.9-1C93.9,101.9,93.9,102.1,94.7,102.1z"/>
		<path id="path2160" marker-end="none" marker-start="none" marker-mid="none" class="st8" d="M30,94.5
			c-7.4,18.5,4.2,128,7.4,151.4c16.5,2.6,42.9,2.4,53.5,3.2c0.4-24.9,3.6-48.8,5.1-56.3c5.1-15.2-0.6-22.4,2.2-35.3
			c2.4-16.3,7.8-51.8,3.8-55.9c-3.8-3.9-20.4-5-28.9-5.3C52.2,94.4,48.9,93,30,94.5z"/>
		<path id="path2172" marker-end="none" marker-start="none" marker-mid="none" class="st9" d="M97.9,176.5l0.5-16.2l2.1-20.2
			c0,0,26.7,0.3,53,4.1c27.3,4,28.6,7.2,56.1,10.2c25.1,2.7,30.8,6.5,58.4,6.8c25.4,0.3,40.4,0.4,51.3-0.3c1.6,5.6,3.2,3.3,3.9,7.2
			c0.7,3.9-1.9,4.6-1.9,4.6l-1.8,6.1l1.5,9.9c0,0-25.8-0.8-51.4-1.3c-25.6-0.5-37.1,0.4-60.1-3C191.5,181.9,97.9,176.5,97.9,176.5z"
			/>
		<path id="path2177" marker-end="none" marker-start="none" marker-mid="none" class="st10" d="M50.4,247.1c1.5,3.5,2.5,7.2,1.8,11
			c0,3.3,0.8,8.3,1.1,11.6c6.5-1.5,12.7,0.8,19.2,0.5c1.9-2.9,1.4-8.5,2.4-11.7c0.4-3.3,2.1-6.6,2.3-9.7c-3.3-0.1-6.8,0.2-10.2-0.2
			c-4.9-0.3-9.7-1-14.6-1.3"/>
		<path id="path2183" marker-end="none" marker-start="none" marker-mid="none" class="st10" d="M559.5,250c2,3.2,3.5,6.8,3.4,10.6
			c0.5,3.3,1.9,8.1,2.8,11.4c6.2-2.4,12.7-1,19.1-2.2c1.4-3.1,0.2-8.6,0.7-11.9c0-3.3,1.1-6.8,0.9-9.9c-3.3,0.4-6.7,1.2-10.1,1.3
			c-4.9,0.4-9.7,0.4-14.6,0.8"/>
		<path id="path2188" marker-end="none" marker-start="none" marker-mid="none" class="st7" d="M512.2,118.3
			c3.7-2.7,10.3-5.6,15.1-8.7c2.1-1.3,3.5-2.6,5.9-3.6c4.6-2.1,4.9,1.6,5.6,5.1c0.8,4.4,2.3,8.7,3.8,12.8c1.4,3.9,1.5,8.2,1.3,12.3
			c-0.2,3.7-1.1,7-0.6,10.7c0.3,2.2-5.9,2.7-7.8,3.1c-8.1,1.9-16.6,2.3-24.9,2.8c-5.2,0.3-10.2-2.1-14.9-4
			c-4.5-1.7-10.1-1.3-14.6-0.4c-5.2,1.1-10.7,0.1-9-6.7c1-4.2,8.9-9.1,12.5-10.4c5.6-2,9.7-3.9,14.5-7.4c3.4-2.5,6.1-4.7,10.3-6.3
			C510.7,117,509.7,117.2,512.2,118.3z"/>
		<path id="path3135" marker-end="none" marker-start="none" marker-mid="none" class="st11" d="M535.2,105.8
			c1.5,23.4,10.7,111.9,13.5,144.6c15.9,0,42.9-3.4,52.9-4.2c3.7-24.5,3.6-38,5.3-56.5c1.4-15.3,1.1-21.2,1.7-33.9
			c-0.2-15.9,8-53,3.7-56.2c-4.1-3.1-28.2,0.7-36.3,1.6C556,102.4,552.8,101.6,535.2,105.8z"/>
		<path id="path2174" marker-end="none" marker-start="none" marker-mid="none" class="st9" d="M321.1,188.8c0,0,0-1.1,0.1-3.1
			c0-2-1.4-5.3-1.3-8.5s4.5-3.8,4.6-7.7c0.1-3.8-1.8-4.1-0.2-8.2c16.3,2.7,44.9-2.4,57.2-2.3c18.5,0.1,31.1-2.5,47.4-5.6
			c34.5-6.6,35.1-6.7,60.8-10.7c27.4-4.2,49-4,49-4l3.7,40.5c0,0-83.5,3.7-110.6,5.9c-26.9,2.2-53.2,3.7-74,3.7
			C337.1,188.8,321.1,188.8,321.1,188.8z"/>
		<path id="path2173" marker-end="none" marker-start="none" marker-mid="none" class="st12" d="M393.8,154.3
			c8.2-4.5,22.8-8.4,29.3-16.5c11.7-5.6,17.7-13.6,25.5-19.4c20.1-13.3,32.5-19.9,55.4-25.9c15.2-3.4,31.3-4,46.7-3.3
			c11-0.7,22.1-1.6,32.8,0.2c-7.8,4.8-14.9,12.1-24.5,13.1c-8.5,3.1-19.8,0.3-25.4,9c-5,8.2-11,16.1-20.6,19.2
			c-11.3,4.8-22.3,10.3-33.7,14.8c-13.5,1.9-27,4.1-40.5,6.3c-14.1,0.7-27.4,5.1-41.6,5.7C394.2,159.7,389,155.6,393.8,154.3z"/>
		<path id="path2175" marker-end="none" marker-start="none" marker-mid="none" class="st12" d="M392.3,156
			c15.9-4.1,34.1-16.1,50.4-18.7c26.5-9.9,52.1-21.9,77.7-34c14.5-6.7,31.1-7,45.7-13.6c5-1.3,10.3-1.8,15.5-1.5"/>
		<path id="path2182" marker-end="none" marker-start="none" marker-mid="none" class="st12" d="M71.6,80.6c8,1.4,15.9,3.4,23.8,5.2
			c6.4-0.5,13.1-0.2,18.2,4.1c7.5,4.2,14.9,9.8,17.7,18.3c3.2,6.7,5.1,14,8.5,20.5c2.4,4,17,11.7,17.4,14.6
			c-7.3-1.1-33.3-3.2-40.2-4.6c-13.1-1.9-13.8-4.6-12.2-14.1c-0.1-5.3-1.3-3.4,0-13.3c0.8-6.9-7-15-13.8-14
			c-10.4-1.4-19.1-3.1-20.7-12.6C70.1,83.2,70.9,81.8,71.6,80.6z"/>
		<path id="path3160" marker-end="none" marker-start="none" marker-mid="none" class="st13" d="M72.2,81.2
			c6.5-1.1,11.2,4.2,16.5,6.8c7.7,4.5,16,8.1,22.8,13.9c3.7,4.8,7.9,9.2,12.3,13.5c3.8,4.5,7.3,9.2,10.2,14.4
			c3.1,4.4,6.9,8.2,11.6,10.8l10.6,2.2"/>
		<path id="path3325" marker-end="none" marker-start="none" marker-mid="none" class="st7" d="M113.9-210.7L113.9-210.7z"/>
	</g>
</g>
</svg>
