<svg xmlns="http://www.w3.org/2000/svg" xmlns:xlink="http://www.w3.org/1999/xlink" viewBox="0 0 1069 647.5"><defs><style>.cls-1{fill:#50ad9c;}.cls-2,.cls-8{fill:#bfa87c;}.cls-3{fill:#d9f3a5;}.cls-4{mask:url(#mask);}.cls-5{fill:#006837;}.cls-6{fill:#f3c96a;}.cls-7{opacity:0.8;}.cls-8{opacity:0.5;}.cls-9{fill:none;}.cls-10,.cls-11,.cls-12,.cls-13,.cls-14,.cls-15,.cls-17,.cls-19,.cls-20,.cls-21,.cls-22,.cls-23,.cls-24,.cls-26,.cls-9{stroke:#000;}.cls-10,.cls-11,.cls-12,.cls-13,.cls-14,.cls-15,.cls-16,.cls-17,.cls-19,.cls-20,.cls-21,.cls-22,.cls-23,.cls-24,.cls-26,.cls-32,.cls-9{stroke-miterlimit:10;}.cls-19,.cls-24,.cls-9{stroke-width:4px;}.cls-11,.cls-13,.cls-14,.cls-17{stroke-width:2px;}.cls-12{fill:#fff;}.cls-13{fill:#ffb05a;}.cls-14{fill:#ffebb0;}.cls-15,.cls-19,.cls-28,.cls-30{fill:#3e4028;}.cls-15,.cls-16,.cls-20,.cls-21,.cls-22,.cls-23{stroke-width:3px;}.cls-16,.cls-20{fill:#ebe2d0;}.cls-16{stroke:#3e4028;}.cls-17,.cls-18,.cls-25{fill:#a69992;}.cls-21{fill:#939391;}.cls-22{fill:#cbb097;}.cls-23{fill:#e0e0de;}.cls-24{fill:#9f3818;}.cls-25{opacity:0.6;}.cls-26{stroke-width:0.75px;}.cls-27{font-size:100px;fill:#febf32;font-family:LoveloLineLight, Lovelo;}.cls-28{font-size:55.13px;font-family:LoveloLineBold, Lovelo;font-weight:700;}.cls-29{letter-spacing:-0.05em;}.cls-31{fill:#4d4d47;}.cls-32{fill:#b8aeb8;stroke:#fff;}</style><mask id="mask" x="934.27" y="409.24" width="118.64" height="165.94" maskUnits="userSpaceOnUse"><path class="cls-1" d="M980.57,567.42h0c-22.8,0-41.75-13.12-45.69-28.08a20,20,0,0,1-.17-9.12c3.52-17.17,22.71-105.26,45.86-105.26h0c23.2,0,43.72,89.77,47.42,106.88a18.46,18.46,0,0,1-.21,9C1023.58,555.51,1003.37,567.42,980.57,567.42Z"/></mask></defs><title>dayAsset 10</title><g id="Layer_2" data-name="Layer 2"><g id="theatre"><g id="background-city-right"><rect class="cls-2" x="914" y="264.75" width="97.76" height="371.57"/><rect class="cls-2" x="929" y="244.9" width="64.46" height="31.32"/><rect class="cls-2" x="937" y="228.14" width="48" height="23.32"/></g><g id="tree"><path class="cls-3" d="M980.31,567.42h0c-22.8,0-41.75-13.12-45.69-28.08a20,20,0,0,1-.17-9.12C938,513,957.17,424.95,980.31,424.95h0c23.2,0,43.72,89.77,47.42,106.88a18.46,18.46,0,0,1-.21,9C1023.32,555.51,1003.11,567.42,980.31,567.42Z"/><g class="cls-4"><rect id="tree_shadow" data-name="tree shadow" class="cls-5" x="981.1" y="409.24" width="71.81" height="165.94"/></g><rect class="cls-6" x="977.41" y="522.04" width="7.39" height="118.72"/></g><g id="background-city-left-2" class="cls-7"><rect class="cls-2" x="115.96" y="232.83" width="142.07" height="408.18"/><rect class="cls-2" x="137.76" y="197.33" width="93.69" height="35.5"/><path class="cls-2" d="M217,215.91H152.72s0-56.4,0-86,64.25,14.41,64.25,44Z"/></g><rect id="background-city-left-1" class="cls-8" x="24.09" y="336" width="69.7" height="300.27"/><polygon class="cls-9" points="146.93 385.26 132.97 439.92 107.74 439.92 93.79 385.26 146.93 385.26"/><rect class="cls-10" x="117.95" y="385.26" width="3.6" height="40.25"/><path class="cls-11" d="M148.18,385.26H91.52c-19.22,0,.07-8.34.07-8.34a85.77,85.77,0,0,1,21.53-5,7.21,7.21,0,1,1,13.29-.1,80.76,80.76,0,0,1,21.76,4.94S168,385.26,148.18,385.26Z"/><path class="cls-10" d="M143.78,591a1.5,1.5,0,0,1-1.5,1.5h-19.2c-3,10.61,8.88,45.65,14.69,45.65H103.05c7,0,15.05-35,13.62-45.65H99a1.5,1.5,0,1,1,0-3h17.43c-2.32-2.47-3.92-7.5-3.92-13.29,0-4.88,2.52-9.21,4.58-11.94H106.84a1.5,1.5,0,0,1,0-3H118V442.92H98.13a1.2,1.2,0,0,1-1.2-1.2,1.21,1.21,0,0,1,1.2-1.2H142a1.2,1.2,0,0,1,1.2,1.2,1.21,1.21,0,0,1-1.2,1.2H121.56V561.26h10.51a1.5,1.5,0,0,1,0,3h-9.69c2.07,2.73,4.58,7.06,4.58,11.94,0,5.79-1.59,10.82-3.92,13.29h19.23A1.5,1.5,0,0,1,143.78,591Z"/><polygon class="cls-10" points="107.14 440.52 104.14 425.5 135.38 425.5 132.37 440.52 107.14 440.52"/><polygon class="cls-12" points="118.56 425.5 104.74 425.5 95.13 386.46 118.56 386.46 118.56 425.5"/><polygon class="cls-12" points="121.56 425.5 135.38 425.5 144.99 386.46 121.56 386.46 121.56 425.5"/><rect class="cls-13" x="282" y="31.5" width="507" height="303.1"/><rect class="cls-14" x="339" y="94.5" width="416" height="227"/><g id="upper-side-poles"><path class="cls-15" d="M321,334.5H238V31.5c27.89-15.74,55.56-16.26,83,0Z"/><path class="cls-15" d="M855.5,334h-83V31c27.89-15.74,55.56-16.26,83,0Z"/></g><g id="upper-side-deco"><path class="cls-16" d="M291.5,334H268V12.27c0-13,23.5-13,23.5,0Z"/><path class="cls-16" d="M826.5,333H803V11.27c0-13,23.5-13,23.5,0Z"/></g><rect class="cls-14" x="225" y="412.5" width="649" height="225"/><g id="upper-center-deco"><rect class="cls-17" x="375" y="94.5" width="94" height="227"/><rect class="cls-17" x="625" y="94.5" width="94" height="227"/><rect class="cls-17" x="501" y="94.5" width="94" height="227"/></g><rect class="cls-11" x="1" y="637.5" width="1067" height="9"/><g id="front-day-shade"><rect class="cls-18" x="305.98" y="477.45" width="483.04" height="7.07"/><rect class="cls-18" x="316.71" y="484.52" width="456.79" height="98.98"/></g><g id="front-black-poles"><rect class="cls-19" x="223" y="412.5" width="100" height="225"/><rect class="cls-19" x="773" y="412.5" width="100" height="225"/></g><g id="front-pole-stripes"><rect class="cls-20" x="223.5" y="491.01" width="99" height="7.99"/><rect class="cls-20" x="223.5" y="538.01" width="99" height="7.99"/><rect class="cls-20" x="223.5" y="588.01" width="99" height="7.99"/><rect class="cls-20" x="773.5" y="491.01" width="99" height="7.99"/><rect class="cls-20" x="773.5" y="538.01" width="99" height="7.99"/><rect class="cls-20" x="773.5" y="588.01" width="99" height="7.99"/></g><g id="awning"><rect class="cls-21" x="203" y="334.5" width="689" height="78"/><polygon class="cls-20" points="842.77 469.6 243.7 469.93 204 415.5 889.96 414.8 842.77 469.6"/><polygon class="cls-22" points="828.16 452.5 265.5 452.4 248.31 426.68 851.06 424.27 828.16 452.5"/><path class="cls-20" d="M305.29,438.24c1,3.52-2.48,6.71-7.89,7.13s-10.65-2.09-11.7-5.61,2.48-6.71,7.89-7.13S304.24,434.72,305.29,438.24Z"/><path class="cls-20" d="M350.7,438.24c1,3.52-2.48,6.71-7.89,7.13s-10.65-2.09-11.7-5.61,2.48-6.71,7.89-7.13S349.65,434.72,350.7,438.24Z"/><path class="cls-20" d="M396.1,438.24c1,3.52-2.48,6.71-7.89,7.13s-10.65-2.09-11.7-5.61,2.48-6.71,7.89-7.13S395.05,434.72,396.1,438.24Z"/><path class="cls-20" d="M444.91,438.24c1,3.52-2.48,6.71-7.89,7.13s-10.65-2.09-11.7-5.61,2.48-6.71,7.89-7.13S443.86,434.72,444.91,438.24Z"/><path class="cls-20" d="M496,437.24c1,3.52-2.48,6.71-7.89,7.13s-10.65-2.09-11.7-5.61,2.48-6.71,7.89-7.13S494.94,433.72,496,437.24Z"/><path class="cls-20" d="M793.1,437.24c-1,3.52,2.48,6.71,7.89,7.13s10.65-2.09,11.7-5.61-2.48-6.71-7.89-7.13S794.15,433.72,793.1,437.24Z"/><path class="cls-20" d="M746.56,437.24c-1,3.52,2.48,6.71,7.89,7.13s10.65-2.09,11.7-5.61-2.48-6.71-7.89-7.13S747.61,433.72,746.56,437.24Z"/><path class="cls-20" d="M702.29,437.24c-1,3.52,2.48,6.71,7.89,7.13s10.65-2.09,11.7-5.61-2.48-6.71-7.89-7.13S703.34,433.72,702.29,437.24Z"/><path class="cls-20" d="M651.21,437.24c-1,3.52,2.48,6.71,7.89,7.13s10.65-2.09,11.7-5.61-2.48-6.71-7.89-7.13S652.26,433.72,651.21,437.24Z"/><path class="cls-20" d="M602.4,437.24c-1,3.52,2.48,6.71,7.89,7.13s10.65-2.09,11.7-5.61-2.48-6.71-7.89-7.13S603.45,433.72,602.4,437.24Z"/><path class="cls-20" d="M556.84,438.84c-.36,3.95-4.83,6.92-10,6.64s-9-3.7-8.68-7.65,4.83-6.92,10-6.64S557.2,434.9,556.84,438.84Z"/></g><path class="cls-21" d="M755,81.5H339v-50q208-58.81,416,0Z"/><rect class="cls-23" x="614" y="511.5" width="135" height="126"/><rect class="cls-23" x="347" y="513.5" width="135" height="124"/><rect class="cls-11" x="414.5" y="514.5" width="1" height="128"/><rect class="cls-11" x="678.5" y="513.5" width="1" height="128"/><rect class="cls-24" x="500" y="493.5" width="94" height="144"/><rect class="cls-25" x="347" y="513.5" width="135" height="52"/><rect class="cls-25" x="616" y="513.5" width="131" height="55"/><path class="cls-10" d="M240,354.63a2.05,2.05,0,0,1-.62,1.46,2.16,2.16,0,0,1-1.5.6H204.5v-4.13h33.38A2.09,2.09,0,0,1,240,354.63Z"/><path class="cls-26" d="M255,367.63a1.82,1.82,0,0,1-.9,1.46,4,4,0,0,1-2.18.6H203.5v-4.13h48.43C253.62,365.56,255,366.48,255,367.63Z"/><path class="cls-26" d="M243,382.63a2,2,0,0,1-.69,1.46,2.55,2.55,0,0,1-1.67.6H203.5v-4.13h37.14A2.23,2.23,0,0,1,243,382.63Z"/><path class="cls-10" d="M855.5,354.63a2.05,2.05,0,0,0,.62,1.46,2.16,2.16,0,0,0,1.5.6H891v-4.13H857.62A2.09,2.09,0,0,0,855.5,354.63Z"/><path class="cls-26" d="M840.5,367.63a1.82,1.82,0,0,0,.9,1.46,4,4,0,0,0,2.18.6H892v-4.13H843.57C841.88,365.56,840.5,366.48,840.5,367.63Z"/><path class="cls-26" d="M852.5,382.63a2,2,0,0,0,.69,1.46,2.55,2.55,0,0,0,1.67.6H892v-4.13H854.86A2.23,2.23,0,0,0,852.5,382.63Z"/><text class="cls-27" transform="translate(282.3 386.09)">LANDMARK</text><text class="cls-28" transform="translate(432.38 61.61)">THE<tspan class="cls-29" x="100.56" y="0">A</tspan><tspan x="133.69" y="0">TRE</tspan></text><rect class="cls-30" x="336" y="495.5" width="156" height="17"/><rect class="cls-30" x="604" y="493.5" width="156" height="17"/><rect class="cls-31" x="509" y="501.5" width="76" height="64"/><rect class="cls-30" x="495" y="480.5" width="104" height="11"/><rect class="cls-32" x="513" y="103.5" width="17" height="17"/><rect class="cls-32" x="539" y="103.5" width="17" height="17"/><rect class="cls-32" x="566" y="103.5" width="17" height="17"/><rect class="cls-32" x="513" y="130.5" width="17" height="17"/><rect class="cls-32" x="539" y="130.5" width="17" height="17"/><rect class="cls-32" x="566" y="130.5" width="17" height="17"/><rect class="cls-32" x="513" y="158.5" width="17" height="17"/><rect class="cls-32" x="539" y="158.5" width="17" height="17"/><rect class="cls-32" x="566" y="158.5" width="17" height="17"/><rect class="cls-32" x="513" y="185.5" width="17" height="17"/><rect class="cls-32" x="539" y="185.5" width="17" height="17"/><rect class="cls-32" x="566" y="185.5" width="17" height="17"/><rect class="cls-32" x="513" y="212.5" width="17" height="17"/><rect class="cls-32" x="539" y="212.5" width="17" height="17"/><rect class="cls-32" x="566" y="212.5" width="17" height="17"/><rect class="cls-32" x="513" y="239.5" width="17" height="17"/><rect class="cls-32" x="539" y="239.5" width="17" height="17"/><rect class="cls-32" x="566" y="239.5" width="17" height="17"/><rect class="cls-32" x="513" y="265.5" width="17" height="17"/><rect class="cls-32" x="539" y="265.5" width="17" height="17"/><rect class="cls-32" x="566" y="265.5" width="17" height="17"/><rect class="cls-32" x="513" y="292.5" width="17" height="17"/><rect class="cls-32" x="539" y="292.5" width="17" height="17"/><rect class="cls-32" x="566" y="292.5" width="17" height="17"/><rect class="cls-32" x="387" y="102.5" width="17" height="17"/><rect class="cls-32" x="413" y="102.5" width="17" height="17"/><rect class="cls-32" x="440" y="102.5" width="17" height="17"/><rect class="cls-32" x="387" y="129.5" width="17" height="17"/><rect class="cls-32" x="413" y="129.5" width="17" height="17"/><rect class="cls-32" x="440" y="129.5" width="17" height="17"/><rect class="cls-32" x="387" y="157.5" width="17" height="17"/><rect class="cls-32" x="413" y="157.5" width="17" height="17"/><rect class="cls-32" x="440" y="157.5" width="17" height="17"/><rect class="cls-32" x="387" y="184.5" width="17" height="17"/><rect class="cls-32" x="413" y="184.5" width="17" height="17"/><rect class="cls-32" x="440" y="184.5" width="17" height="17"/><rect class="cls-32" x="387" y="211.5" width="17" height="17"/><rect class="cls-32" x="413" y="211.5" width="17" height="17"/><rect class="cls-32" x="440" y="211.5" width="17" height="17"/><rect class="cls-32" x="387" y="238.5" width="17" height="17"/><rect class="cls-32" x="413" y="238.5" width="17" height="17"/><rect class="cls-32" x="440" y="238.5" width="17" height="17"/><rect class="cls-32" x="387" y="264.5" width="17" height="17"/><rect class="cls-32" x="413" y="264.5" width="17" height="17"/><rect class="cls-32" x="440" y="264.5" width="17" height="17"/><rect class="cls-32" x="387" y="291.5" width="17" height="17"/><rect class="cls-32" x="413" y="291.5" width="17" height="17"/><rect class="cls-32" x="440" y="291.5" width="17" height="17"/><rect class="cls-32" x="636" y="102.5" width="17" height="17"/><rect class="cls-32" x="662" y="102.5" width="17" height="17"/><rect class="cls-32" x="689" y="102.5" width="17" height="17"/><rect class="cls-32" x="636" y="129.5" width="17" height="17"/><rect class="cls-32" x="662" y="129.5" width="17" height="17"/><rect class="cls-32" x="689" y="129.5" width="17" height="17"/><rect class="cls-32" x="636" y="157.5" width="17" height="17"/><rect class="cls-32" x="662" y="157.5" width="17" height="17"/><rect class="cls-32" x="689" y="157.5" width="17" height="17"/><rect class="cls-32" x="636" y="184.5" width="17" height="17"/><rect class="cls-32" x="662" y="184.5" width="17" height="17"/><rect class="cls-32" x="689" y="184.5" width="17" height="17"/><rect class="cls-32" x="636" y="211.5" width="17" height="17"/><rect class="cls-32" x="662" y="211.5" width="17" height="17"/><rect class="cls-32" x="689" y="211.5" width="17" height="17"/><rect class="cls-32" x="636" y="238.5" width="17" height="17"/><rect class="cls-32" x="662" y="238.5" width="17" height="17"/><rect class="cls-32" x="689" y="238.5" width="17" height="17"/><rect class="cls-32" x="636" y="264.5" width="17" height="17"/><rect class="cls-32" x="662" y="264.5" width="17" height="17"/><rect class="cls-32" x="689" y="264.5" width="17" height="17"/><rect class="cls-32" x="636" y="291.5" width="17" height="17"/><rect class="cls-32" x="662" y="291.5" width="17" height="17"/><rect class="cls-32" x="689" y="291.5" width="17" height="17"/></g></g></svg>