<svg xmlns="http://www.w3.org/2000/svg" viewBox="0 0 491 491"><defs><style>.cls-1{fill:#ebe2d0;}.cls-2{opacity:0.9;}.cls-3{fill:#f07571;}.cls-4{fill:#16193b;}.cls-5{fill:#bfc4d5;}.cls-6{fill:#ffebb0;}.cls-7{fill:#7fb2f0;}.cls-8{fill:#222a40;}.cls-9{fill:#35478c;opacity:0.6;}.cls-10{fill:#c5d9b2;}.cls-11{fill:#53a194;}.cls-12{fill:#fb9a63;}</style></defs><title>gift-card-3Asset 2</title><g id="Layer_2" data-name="Layer 2"><g id="background"><circle class="cls-1" cx="245.5" cy="245.5" r="245.5"/></g><g id="gift-card"><g class="cls-2"><polygon class="cls-3" points="242.53 285.5 225.75 294.87 221.68 297.14 178.04 321.51 73.09 380.09 72.98 191.09 113.05 213.41 119.41 216.95 123.98 219.49 225.87 276.22 228.23 277.54 242.53 285.5"/></g><polygon class="cls-3" points="411.98 190.91 371.92 213.27 369.07 214.86 366.62 216.23 353.22 223.71 340.18 230.99 338.98 231.66 338.97 231.67 329.01 237.22 316.32 244.31 315.96 244.51 297.8 254.65 292.36 257.68 292.35 257.69 242.53 285.5 228.23 277.54 225.87 276.22 123.98 219.49 119.41 216.95 113.05 213.41 72.98 191.09 411.98 190.91"/><g class="cls-2"><polygon class="cls-3" points="411.98 190.91 412.09 379.91 249.08 289.15 248.61 288.88 248.6 288.88 247.02 288 242.53 285.5 292.35 257.69 292.36 257.68 298.2 256.16 297.8 254.65 315.96 244.51 316.32 244.31 329.01 237.22 338.97 231.67 338.98 231.66 340.27 231.33 340.18 230.99 353.22 223.71 366.62 216.23 369.07 214.86 371.92 213.27 411.98 190.91"/></g><g class="cls-2"><polygon class="cls-3" points="298.2 256.16 292.36 257.68 297.8 254.65 298.2 256.16"/></g><g class="cls-2"><polygon class="cls-3" points="340.27 231.33 338.98 231.66 340.18 230.99 340.27 231.33"/></g><polygon class="cls-3" points="412.09 379.91 73.09 380.09 178.04 321.51 221.68 297.14 225.75 294.87 242.53 285.5 247.02 288 248.6 288.88 248.61 288.88 249.08 289.15 412.09 379.91"/><polygon class="cls-3" points="242.91 68 72.98 191.09 411.98 190.91 242.91 68"/><path class="cls-4" d="M371.92,213.27l-2.85,1.59-2.46,1.37-13.4,7.48-13,7.28.09.34-1.29.33h0l-10,5.56-12.69,7.09-.36.2L297.8,254.65l.4,1.51-5.84,1.52h0L242.53,285.5l-14.3-8-2.36-1.32L124,219.49l-4.57-2.54-6.35-3.54-.42-.93a15.73,15.73,0,0,1,7.78-20.86l1.21-.55,81.59-37.27,11.93-5.45,84.95-38.8,5.92-2.7a15.74,15.74,0,0,1,20.87,7.78l3,6.58,6.85,15h0l18.83,41.24,2.08,4.55,4.07,8.94Z"/><path class="cls-5" d="M369.07,214.86l-2.46,1.37-13.4,7.48-13,7.28.09.34-1.29.33h0l-10,5.56-12.69,7.09-.36.2L297.8,254.65l.4,1.51-5.84,1.52h0L242.53,285.5l-14.3-8-2.36-1.32L124,219.49l-4.57-2.54-5.52-15.3a15.67,15.67,0,0,1,2.75-15.46,15.54,15.54,0,0,1,6.72-4.69l68.33-24.67,23.46-8.47L307.55,115l7.72-2.78a15.76,15.76,0,0,1,20.16,9.47l.29.8,6.36,17.62,13.49,37.36,3.23,8.95,1.63,4.54Z"/><path class="cls-6" d="M353.22,223.71l-13,7.28.09.34-1.29.33h0l-10,5.56-12.69,7.09-.36.2L297.8,254.65l.4,1.51-5.84,1.52h0L242.53,285.5l-14.3-8-2.36-1.32L124,219.49l-6.79-25.9-.23-.89a15.69,15.69,0,0,1-.33-1.63,15.35,15.35,0,0,1,0-4.88,15.77,15.77,0,0,1,11.56-12.73l63.48-16.64,11.53-3,115.93-30.38,6.42-1.68a16.06,16.06,0,0,1,4.32-.52A15.77,15.77,0,0,1,344.79,133l2.95,11.23L357.65,182l1.15,4.4,1.19,4.54,6.62,25.3Z"/><g id="gift-box-blue"><ellipse class="cls-7" cx="282.75" cy="186.34" rx="15.65" ry="8.15" transform="translate(-26.15 325.07) rotate(-57.57)"/><ellipse class="cls-7" cx="259.96" cy="192.28" rx="7.85" ry="16.78" transform="translate(-32.32 330.56) rotate(-61.81)"/><ellipse class="cls-6" cx="259.6" cy="192.08" rx="4.73" ry="11.57" transform="translate(-32.34 330.14) rotate(-61.81)"/><ellipse class="cls-6" cx="282.74" cy="186.01" rx="11.57" ry="4.73" transform="translate(-25.89 324.92) rotate(-57.57)"/><path class="cls-8" d="M310.81,207.34l-64.59,16.93a4.77,4.77,0,0,1-5.82-3.4l-1.86-7.1c-.67-2.55.86-5.15,4.11-6l64.59-16.93c1.84-.48,4.44,1,5.11,3.59l1.86,7.1A4.77,4.77,0,0,1,310.81,207.34Z"/><polygon class="cls-8" points="315.96 244.51 297.8 254.65 298.2 256.16 292.36 257.68 292.35 257.69 281.16 260.62 262.11 265.61 261.28 265.83 256.04 245.85 254.85 241.28 252.09 230.78 251.98 230.34 250.12 223.25 270 218.03 283.23 214.57 287.03 213.57 287.03 213.56 289.66 212.87 292.73 212.07 294.84 211.52 306.9 208.36 308.75 215.45 308.76 215.45 310.36 221.54 313.37 233.03 314.68 238.03 316.32 244.31 315.96 244.51"/><polygon class="cls-7" points="298.2 256.16 292.36 257.68 292.35 257.69 281.16 260.62 271.86 225.13 270 218.03 265.95 202.58 265.72 201.71 274.25 199.47 275.1 199.25 275.11 199.25 282.75 197.25 282.95 197.96 287.03 213.56 287.03 213.57 288.9 220.66 297.8 254.65 298.2 256.16"/><rect class="cls-9" x="250.09" y="215.68" width="58.7" height="7.34" transform="translate(-46.49 78.03) rotate(-14.69)"/></g><g id="gift-box-grey"><path class="cls-10" d="M355.7,221.94l-45.47,11.92a3.36,3.36,0,0,1-4.1-2.4l-1.31-5c-.47-1.79.6-3.63,2.9-4.23l45.47-11.92a3.3,3.3,0,0,1,3.6,2.53l1.31,5A3.36,3.36,0,0,1,355.7,221.94Z"/><polygon class="cls-10" points="340.18 230.99 340.27 231.33 338.98 231.66 338.97 231.67 329.01 237.22 316.32 244.31 315.96 244.51 314.3 238.13 314.29 238.13 312.99 233.13 313.37 233.03 326.97 229.46 338.96 226.33 352.95 222.66 353.22 223.71 340.18 230.99"/><ellipse class="cls-10" cx="335.95" cy="207.15" rx="11.02" ry="5.74" transform="matrix(0.54, -0.84, 0.84, 0.54, -19.05, 379.63)"/><ellipse class="cls-10" cx="319.91" cy="211.34" rx="5.52" ry="11.81" transform="translate(-17.49 393.44) rotate(-61.81)"/><ellipse class="cls-6" cx="319.65" cy="211.2" rx="3.33" ry="8.14" transform="translate(-17.51 393.15) rotate(-61.81)"/><ellipse class="cls-6" cx="335.94" cy="206.93" rx="8.14" ry="3.33" transform="matrix(0.54, -0.84, 0.84, 0.54, -18.87, 379.52)"/><polygon class="cls-11" points="340.27 231.33 338.98 231.66 338.97 231.67 329.01 237.22 328.29 234.46 326.97 229.46 324.12 218.59 323.96 217.97 329.97 216.4 329.98 216.4 330.56 216.24 330.57 216.24 335.94 214.83 335.94 214.84 336.07 215.34 338.96 226.33 340.18 230.99 340.27 231.33"/><polygon class="cls-9" points="340.18 230.99 340.27 231.33 338.98 231.66 338.97 231.67 328.29 234.46 314.68 238.03 314.3 238.13 314.29 238.13 312.99 233.13 313.37 233.03 326.97 229.46 338.96 226.33 352.95 222.66 353.22 223.71 340.18 230.99"/></g><g id="gift-box-green"><path class="cls-5" d="M258.19,240.41,216.65,251.3a3.07,3.07,0,0,1-3.74-2.19l-1.2-4.57c-.43-1.64.55-3.31,2.64-3.86l41.53-10.89a3,3,0,0,1,3.29,2.31l1.2,4.57A3.07,3.07,0,0,1,258.19,240.41Z"/><polygon class="cls-5" points="262.86 268.46 250.08 271.81 228.23 277.54 225.87 276.22 220.36 255.2 219.16 250.64 231.94 247.3 242.9 244.42 254.85 241.28 255.67 241.07 256.86 245.63 262.11 265.61 262.86 268.46"/><ellipse class="cls-5" cx="240.14" cy="226.91" rx="10.07" ry="5.24" transform="translate(-80.16 307.92) rotate(-57.57)"/><ellipse class="cls-5" cx="225.49" cy="230.73" rx="5.05" ry="10.79" transform="translate(-84.4 320.46) rotate(-61.81)"/><ellipse class="cls-6" cx="225.26" cy="230.6" rx="3.04" ry="7.44" transform="translate(-84.41 320.19) rotate(-61.81)"/><ellipse class="cls-6" cx="240.14" cy="226.7" rx="7.44" ry="3.04" transform="translate(-79.99 307.82) rotate(-57.57)"/><rect class="cls-12" x="233.97" y="234.72" width="11.32" height="39.16" transform="matrix(0.97, -0.25, 0.25, 0.97, -56.65, 69.08)"/><rect class="cls-9" x="219.14" y="245.78" width="37.74" height="4.72" transform="translate(-55.14 68.46) rotate(-14.69)"/></g></g></g></svg>