<svg xmlns="http://www.w3.org/2000/svg" viewBox="0 0 491 491"><defs><style>.cls-1{fill:#ebe2d0;}.cls-2{opacity:0.9;}.cls-3{fill:#f07571;}</style></defs><title>gift-card-1Asset 3</title><g id="Layer_2" data-name="Layer 2"><g id="background"><circle class="cls-1" cx="245.5" cy="245.5" r="245.5"/></g><g id="Envelope"><g class="cls-2"><path class="cls-3" d="M243.5,287.5l-6.07,3.38-3.26,1.82-8.34,4.65-.34.19-13.19,7.35-59.79,33.34-10,5.55-3.54,2L74,382V193l44,24.53,2.94,1.64,5.16,2.87,89.4,49.84,3.41,1.91h0l10.29,5.74,1.87,1a2.79,2.79,0,0,0,.58,1l0,.06a2.7,2.7,0,0,0,.31.28,2.39,2.39,0,0,0,.21-.34h.68l1.93,1.07s0,0,0,0l2.58,1.46Z"/></g><g class="cls-2"><path class="cls-3" d="M232.9,281.59h-.68a2.39,2.39,0,0,1-.21.34,2.7,2.7,0,0,1-.31-.28l0-.06a2.79,2.79,0,0,1-.58-1l1.29.72Z"/></g><path class="cls-3" d="M413,193l-45.66,25.46-4,2.24-2.66,1.49-61.21,34.12L289.18,262l-18,10.06-2.71,1.51L255,281.11l-.85.48h0l-4,2.24-6.59,3.67-6.07-3.38-2.58-1.46s0,0,0,0l-1.93-1.07-.54-.3-1.29-.72-1.87-1-10.29-5.74h0l-3.41-1.91L126.09,222l-5.16-2.87L118,217.53,74,193Z"/><g class="cls-2"><polygon class="cls-3" points="413 193 413 382 334.49 338.23 317.97 329.02 310.66 324.94 299.44 318.69 289.18 312.97 271.14 302.91 252.83 292.7 250.09 291.17 243.5 287.5 250.09 283.83 254.1 281.59 254.11 281.59 254.96 281.11 268.43 273.6 271.14 273.6 271.14 272.09 289.18 262.03 299.44 256.31 360.65 222.19 363.31 220.7 367.34 218.46 413 193"/></g><g class="cls-2"><polygon class="cls-3" points="271.14 272.09 271.14 273.6 268.43 273.6 271.14 272.09"/></g><polygon class="cls-3" points="413 382 74 382 139.01 345.76 142.55 343.78 152.51 338.23 212.3 304.89 225.49 297.54 225.83 297.54 225.83 297.35 234.17 292.7 237.43 290.88 243.5 287.5 250.09 291.17 252.83 292.7 271.14 302.91 289.18 312.97 299.44 318.69 310.66 324.94 317.97 329.02 334.49 338.23 413 382"/><polygon class="cls-3" points="225.83 297.35 225.83 297.54 225.49 297.54 225.83 297.35"/></g></g></svg>