<svg xmlns="http://www.w3.org/2000/svg" viewBox="0 0 491 491"><defs><style>.cls-1{fill:#ebe2d0;}.cls-2{opacity:0.9;}.cls-3{fill:#f07571;}.cls-4{fill:#29abe2;}.cls-5{fill:#222a40;}.cls-6{fill:#f48660;}.cls-7{fill:#bfc4d5;}.cls-8{fill:#ffdfbb;}.cls-9{fill:#ffebb0;}.cls-10{fill:#7fb2f0;}.cls-11{fill:#35478c;opacity:0.6;}.cls-12{fill:#fb9a63;}</style></defs><title>gift-card-2Asset 1</title><g id="Layer_2" data-name="Layer 2"><g id="background"><circle class="cls-1" cx="245.5" cy="245.5" r="245.5"/></g><g id="gift-card"><g class="cls-2"><path class="cls-3" d="M241.5,285.5l-6.07,3.38-3.26,1.82-8.34,4.65-.34.19-13.19,7.35-59.79,33.34-10,5.55-3.54,2L72,380V191l44,24.53,2.94,1.64,5.16,2.87,89.4,49.84,3.41,1.91h0l10.29,5.74,1.87,1a2.79,2.79,0,0,0,.58,1l0,.06a2.7,2.7,0,0,0,.31.28,2.39,2.39,0,0,0,.21-.34h.68l1.93,1.07s0,0,0,0l2.58,1.46Z"/></g><g class="cls-2"><path class="cls-3" d="M230.9,279.59h-.68a2.39,2.39,0,0,1-.21.34,2.7,2.7,0,0,1-.31-.28l0-.06a2.79,2.79,0,0,1-.58-1l1.29.72Z"/></g><path class="cls-3" d="M411,191l-45.66,25.46-4,2.24-2.66,1.49-61.21,34.12L287.18,260l-18,10.06-2.71,1.51L253,279.11l-.85.48h0l-4,2.24-6.59,3.67-6.07-3.38-2.58-1.46s0,0,0,0l-1.93-1.07-.54-.3-1.29-.72-1.87-1-10.29-5.74h0l-3.41-1.91L124.09,220l-5.16-2.87L116,215.53,72,191Z"/><g class="cls-2"><polygon class="cls-3" points="411 191 411 380 332.49 336.23 315.97 327.02 308.66 322.94 297.44 316.69 287.18 310.97 269.14 300.91 250.83 290.7 248.09 289.17 241.5 285.5 248.09 281.83 252.1 279.59 252.11 279.59 252.96 279.11 266.43 271.6 269.14 271.6 269.14 270.09 287.18 260.03 297.44 254.31 358.65 220.19 361.31 218.7 365.34 216.46 411 191"/></g><g class="cls-2"><polygon class="cls-3" points="269.14 270.09 269.14 271.6 266.43 271.6 269.14 270.09"/></g><polygon class="cls-3" points="411 380 72 380 137.01 343.76 140.55 341.78 150.51 336.23 210.3 302.89 223.49 295.54 223.83 295.54 223.83 295.35 232.17 290.7 235.43 288.88 241.5 285.5 248.09 289.17 250.83 290.7 269.14 300.91 287.18 310.97 297.44 316.69 308.66 322.94 315.97 327.02 332.49 336.23 411 380"/><polygon class="cls-3" points="223.83 295.35 223.83 295.54 223.49 295.54 223.83 295.35"/><polygon class="cls-3" points="242 68 72 191 411 191 242 68"/><polygon class="cls-4" points="223.83 295.35 223.83 295.54 223.49 295.54 223.83 295.35"/><path class="cls-5" d="M358.65,220.19l-61.21,34.12L287.18,260l-18,10.06v1.51h-2.71L253,279.11l-.85.48h0l-4,2.24-6.59,3.67-6.07-3.38-2.58-1.46s0,0,0,0l-1.93-1.07h-.68a2.39,2.39,0,0,1-.21.34,2.7,2.7,0,0,1-.31-.28l0-.06a2.79,2.79,0,0,1-.58-1l-1.87-1-10.29-5.74h0l-3.41-1.91L124.09,220l-5.16-2.87L116,215.53a16.17,16.17,0,0,1,8.1-7.85,16.7,16.7,0,0,1,3.7-1.11L217.39,191l2.25-.39,13.18-2.29L333.7,170.79a16.14,16.14,0,0,1,17.82,10.12,15.73,15.73,0,0,1,.83,3l1.23,7.08,0,.23Z"/><polygon class="cls-6" points="223.83 295.35 223.83 295.54 223.49 295.54 223.83 295.35"/><path class="cls-7" d="M361.31,218.7l-2.66,1.49-61.21,34.12L287.18,260l-18,10.06v1.51h-2.71L253,279.11l-.85.48h0l-4,2.24-6.59,3.67-6.07-3.38-2.58-1.46s0,0,0,0l-1.93-1.07h-.68a2.39,2.39,0,0,1-.21.34,2.7,2.7,0,0,1-.31-.28l0-.06a2.79,2.79,0,0,1-.58-1l-1.87-1-10.29-5.74h0l-3.41-1.91L124.09,220l-5.16-2.87-.21-2.34a17.21,17.21,0,0,1,0-3.37,16.15,16.15,0,0,1,14.58-14.15L203.16,191l4.32-.39,25.34-2.29,108.66-9.82A16.14,16.14,0,0,1,358.67,191a18.17,18.17,0,0,1,.33,2.11l.08.87Z"/><polygon class="cls-8" points="223.83 295.35 223.83 295.54 223.49 295.54 223.83 295.35"/><path class="cls-9" d="M365.34,206.74v9.72l-4,2.24-2.66,1.49-61.21,34.12L287.18,260l-18,10.06v1.51h-2.71L253,279.11l-.85.48h0l-4,2.24-6.59,3.67-6.07-3.38-2.58-1.46s0,0,0,0l-1.93-1.07h-.68a2.39,2.39,0,0,1-.21.34,2.7,2.7,0,0,1-.31-.28l0-.06a2.79,2.79,0,0,1-.58-1l-1.87-1-10.29-5.74h0l-3.41-1.91L124.09,220v-13.3a15.88,15.88,0,0,1,1.39-6.54,16.08,16.08,0,0,1,11.23-9.2,15.6,15.6,0,0,1,3.51-.39h209a15.6,15.6,0,0,1,3.51.39c.3.06.6.14.9.23a16.1,16.1,0,0,1,11.72,15.51Z"/><g id="gift-box-blue"><ellipse class="cls-10" cx="290.01" cy="243.5" rx="16.03" ry="8.35" transform="translate(-88.2 262.42) rotate(-42.88)"/><ellipse class="cls-10" cx="265.88" cy="243.47" rx="8.04" ry="17.18" transform="translate(-93.45 272.62) rotate(-47.12)"/><ellipse class="cls-9" cx="265.58" cy="243.18" rx="4.85" ry="11.85" transform="translate(-93.34 272.31) rotate(-47.12)"/><ellipse class="cls-9" cx="290.09" cy="243.18" rx="11.85" ry="4.85" transform="translate(-87.96 262.39) rotate(-42.88)"/><path class="cls-5" d="M297.44,254.31,287.18,260l-18,10.06v1.51H244a4.7,4.7,0,0,1-1.69-.31,4.85,4.85,0,0,1-3.14-3.88,5.33,5.33,0,0,1,0-.69V259.2c0-2.7,2.18-4.89,5.63-4.89Z"/><polygon class="cls-5" points="266.43 271.6 252.96 279.11 252.11 279.59 252.1 279.59 248.09 281.83 248.09 271.6 266.43 271.6"/><polygon class="cls-10" points="287.18 254.31 287.18 260.03 269.14 270.09 269.14 254.31 287.18 254.31"/><polygon class="cls-11" points="266.43 271.6 252.96 279.11 248.09 279.11 248.09 271.6 266.43 271.6"/></g><g id="gift-box-green"><path class="cls-7" d="M230.22,279.59a2.39,2.39,0,0,1-.21.34,2.7,2.7,0,0,1-.31-.28l0-.06Z"/><path class="cls-7" d="M252.1,279.59l-4,2.24-6.59,3.67-6.07-3.38-2.58-1.46s0,0,0,0l-1.93-1.07Z"/><polygon class="cls-7" points="223.83 295.35 223.83 295.54 223.49 295.54 223.83 295.35"/><path class="cls-7" d="M244.7,271.6a17.35,17.35,0,0,1-3.79,5,18,18,0,0,1-4.35,3,9.8,9.8,0,0,1-1.13.48,8.44,8.44,0,0,1-2.58.59s0,0,0,0l-1.93-1.07h-.68a2.39,2.39,0,0,1-.21.34,2.7,2.7,0,0,1-.31-.28l0-.06a2.79,2.79,0,0,1-.58-1,6.17,6.17,0,0,1,.46-4.26,16.68,16.68,0,0,1,4.07-5.61,16.88,16.88,0,0,1,5.48-3.5c2.42-.9,4.57-.83,5.73.42S245.88,269.17,244.7,271.6Z"/><path class="cls-7" d="M230.36,279.29a2,2,0,0,1-.14.3,2.39,2.39,0,0,1-.21.34,2.7,2.7,0,0,1-.31-.28l0-.06a2.79,2.79,0,0,1-.58-1l-1.87-1-10.29-5.74h0l-3.41-1.91c-.79-2-.8-3.75.16-4.78,1.94-2.09,7.14-.42,11.61,3.73a20.2,20.2,0,0,1,4.27,5.48C230.5,276.25,230.83,278,230.36,279.29Z"/><path class="cls-9" d="M227.2,277.53l-10.29-5.74h0c-1.29-1.93-1.72-3.7-.93-4.54,1.17-1.26,4.62,0,7.7,2.9S228.23,276.2,227.2,277.53Z"/><ellipse class="cls-9" cx="237.3" cy="272.43" rx="7.62" ry="3.12" transform="translate(-121.97 234.29) rotate(-42.88)"/><path class="cls-12" d="M230.22,279.59a2.39,2.39,0,0,1-.21.34,2.7,2.7,0,0,1-.31-.28l0-.06Z"/><path class="cls-12" d="M235.43,279.59v2.53l-2.58-1.46s0,0,0,0l-1.93-1.07Z"/><polygon class="cls-11" points="223.83 295.35 223.83 295.54 223.49 295.54 223.83 295.35"/></g></g></g></svg>