<svg xmlns="http://www.w3.org/2000/svg" viewBox="0 0 145.19 407.97"><defs><style>.cls-1{fill:#695a3b;}.cls-1,.cls-2,.cls-3,.cls-7{stroke:#000;stroke-miterlimit:10;}.cls-2{fill:#f48660;}.cls-3{fill:#297373;}.cls-4{fill:#f3c96a;}.cls-5{fill:#fff;}.cls-6{fill:#50ad9c;}.cls-7{fill:#3d2324;}</style></defs><title>Asset 12</title><g id="Layer_2" data-name="Layer 2"><g id="theatre"><rect class="cls-1" x="48.5" y="388.14" width="24.43" height="17.94" rx="7.55" ry="7.55"/><rect class="cls-1" x="90.24" y="388.14" width="24.43" height="17.94" rx="7.55" ry="7.55"/><path class="cls-2" d="M63.53,387.79H52.41c-6.82,0-12.34-7.87-12.34-17.59l2.12-70.76c-.39-5.17-12-81.71-9.36-85.37,7.28-10.23,13.75,9.16,19.58,9.16H63.53c18.61-2.62,12.34,7.87,12.34,17.59l-4.41,55.3C72,317,70.35,387.79,63.53,387.79Z"/><path class="cls-2" d="M97.33,387.75H86.2c-6.82,0-5.92-77.39-5.92-87.31l-4.4-59.62c-3.16-20.56,3.51-21,10.32-21H97.33c6.82,0,17.92-31.4,17.92,10.19l-6.05,70.42.47,69.36C109.67,379.72,104.14,387.75,97.33,387.75Z"/><path class="cls-3" d="M110.78,223.89h0c-6.33,5.67-44.54,4.3-63.54,1.28-10.94-1.74-16.15-8.62-17.33-13.27L27.32,203c-1.33-3.68,0-4.07.67-4.13,5-.44,11.16,6.61,27.67,6.61,2.9,0,12.41,1.6,15.27,1.32L99,206.45c14.15-2.12,14.08-8.59,16.51-8.91,8.24-1.06,4.06,2.9,2.35,9.12h0C117.85,210.23,114.24,223.78,110.78,223.89Z"/><path class="cls-3" d="M40.7,223.78"/><path class="cls-3" d="M38.67,220.79h0"/><path class="cls-3" d="M37.62,201.48"/><line class="cls-3" x1="40.68" y1="202.36" x2="40.68" y2="202.36"/><path class="cls-3" d="M36,221l0-20.51"/><path class="cls-3" d="M44.26,224.19l0-20.51"/><path class="cls-3" d="M52.75,225.87l0-20.51"/><path class="cls-3" d="M62,226.48,62,206"/><path class="cls-3" d="M71,227.36l0-20.51"/><path class="cls-3" d="M80.75,227.36l0-20.51"/><path class="cls-3" d="M88.74,227l0-20.51"/><path class="cls-3" d="M96.5,227.36l0-20.51"/><path class="cls-3" d="M104.5,226.48l0-20.51"/><path class="cls-3" d="M112,222.49,112,202"/><path class="cls-4" d="M71.82,72.71c-24,0-26.57-25.65-26.78-28.58C43.47,22.55,51.11,18.08,59.6,16.46l.41-.08V12.71a1,1,0,0,1,0-.1,1.33,1.33,0,0,0,.07-.4,36.52,36.52,0,0,0-1-8.37C59,3.56,59,3.27,58.93,3c.35.23.89.61,1.49,1,1.26.89,3.16,2.24,5.92,4a.74.74,0,0,0,.4.12.73.73,0,0,0,.61-.31.66.66,0,0,0,.07-.62L66,3.56c.18-.4-.17-1-.65-1.87-.17-.31-.43-.76-.58-1.09a31,31,0,0,1,5,3.34,5.07,5.07,0,0,0,3,1.21c1.88,0,2.93-1.69,3.69-2.93.29-.47.78-1.25,1-1.25,0,0,.17.06.36.31,2.5,3.19,5.6,5,8.5,5a6.73,6.73,0,0,0,2.16-.36,1.93,1.93,0,0,0,.83-.58c.78-.91,1.13-1,1.19-1,.63.59.62,3.27.61,4.86,0,2.07,0,2.83.36,3.18a.63.63,0,0,0,.45.19H92l.09,0a3.15,3.15,0,0,1,.77-.11,1.18,1.18,0,0,1,1.06.5c.75,1.08.43,3.94-.82,7.27l-.1.27.19.22c3.4,4.07,5,11.51,5,23.41C98.11,61.78,88,72.71,71.82,72.71Z"/><path d="M77.46,1.63c2.59,3.28,5.82,5.17,8.86,5.17a7.23,7.23,0,0,0,2.33-.38,2.43,2.43,0,0,0,1-.73A4.57,4.57,0,0,1,90.35,5a19.3,19.3,0,0,1,.27,4.23c0,2.23,0,3,.51,3.54a1.12,1.12,0,0,0,.8.34h.16l.12,0a2.63,2.63,0,0,1,.64-.09.68.68,0,0,1,.65.28c.64.92.28,3.72-.87,6.81l-.2.55.37.45c3.33,4,4.87,11.31,4.85,23.09,0,17.3-9.93,28-25.82,28C48.24,72.21,45.74,47,45.53,44.1,44,22.91,51.43,18.53,59.69,17l.81-.15v-4a1.79,1.79,0,0,0,.09-.55,37.12,37.12,0,0,0-.92-8l.44.31c1.26.9,3.17,2.25,5.94,4a1.24,1.24,0,0,0,.67.2,1.23,1.23,0,0,0,1-.53,1.16,1.16,0,0,0,.12-1.08L66.52,3.54A2.79,2.79,0,0,0,66,1.89c.77.5,1.88,1.26,3.47,2.45a5.53,5.53,0,0,0,3.27,1.31c2.16,0,3.34-1.9,4.12-3.16.17-.27.39-.63.57-.86M64.41,0c-1,0,1.49,3.1,1.08,3.4a.14.14,0,0,0,0,.16l1.49,3.87c.05.14-.07.25-.21.25a.24.24,0,0,1-.13,0c-5.45-3.45-7.49-5.31-8.06-5.31-.73,0,1,3.1,1.06,9.88,0,.17-.1.33-.1.5V16c-10.4,2-16.41,8.38-15,28.2.57,7.9,5.32,29,27.28,29,17.61,0,26.79-12.58,26.82-29,0-12.56-1.7-19.69-5.08-23.73C95,16.7,95.72,12,92.85,12a3.61,3.61,0,0,0-.89.12h0c-.82,0,.47-8.23-1.42-8.23-.38,0-.89.33-1.57,1.14a1.42,1.42,0,0,1-.61.43,6.2,6.2,0,0,1-2,.33c-3,0-6-2.16-8.11-4.83-.28-.35-.52-.5-.75-.5-1.22,0-2,4.18-4.69,4.18A4.59,4.59,0,0,1,70.1,3.54C66.53.88,65,0,64.41,0Z"/><ellipse class="cls-5" cx="72.45" cy="89.75" rx="0.41" ry="8"/><path d="M72.45,81.75c-.23,0-.41,3.58-.41,8s.18,8,.41,8,.41-3.58.41-8-.18-8-.41-8Z"/><path class="cls-1" d="M57.54,404.8a15.07,15.07,0,0,0-4.57-.44l-.62,0c-4.15,0-11.25-.26-10.11-12.24l.18-2.93c0-5.09.93-7.29,9.93-7,1.06,0-1.06,0,0,0h0c9.75,3,13.5-4,14.78,8.33l-1,8.33C64.08,404.73,60.18,405.42,57.54,404.8Z"/><path class="cls-6" d="M79.85,207.92c-39.85,0-65-6.21-74.65-18.45-6.94-8.77-4.59-18.72-3-25.3A38.56,38.56,0,0,0,3,160c7.73-69.66,24.19-75,46.61-75,2.4,0,4.85.07,7.44.13,1.63,0,3.28.09,5,.12q2,0,3.93,0c5.94,0,11.37-.21,16.62-.41,4.46-.17,8.68-.33,12.59-.33,13,0,22.51,1.71,30,10.24,7.92,9,13.05,25,16.65,51.9.26,2,.54,3.92.81,5.84C145,169,147,183.29,138.39,193.3c-8.48,9.82-26.44,14.46-56.53,14.62Z"/><path d="M95.17,85C108,85,117.43,86.66,124.83,95c7.85,8.9,12.95,24.82,16.53,51.64.26,2,.54,3.92.81,5.85C144.5,169,146.51,183.14,138,193s-26.22,14.29-56.15,14.44h-2c-39.69,0-64.67-6.14-74.26-18.26-6.79-8.58-4.48-18.39-2.94-24.88A38.84,38.84,0,0,0,3.51,160c7.68-69.25,24-74.6,46.11-74.6,2.4,0,4.84.07,7.42.13,1.63,0,3.29.09,5,.12,1.28,0,2.6,0,3.94,0,5.95,0,11.38-.21,16.64-.41,4.46-.17,8.67-.33,12.58-.33m0-1c-8.43,0-18.12.75-29.21.75q-1.93,0-3.92,0c-4.33-.07-8.47-.25-12.41-.25-23.12,0-39.41,6.13-47.1,75.49-1.18,10.62-21.61,48.49,77.34,48.49h2c73.47-.37,65-28.09,60.48-61.86C134.92,90.88,120.8,84,95.17,84Z"/><path class="cls-6" d="M78.71,217.67c-26.48,0-41.71-3.62-49.39-11.75-8.17-8.63-7.41-22.28-6.45-39.55.35-6.21.74-13.26.74-20.67,0-68.51,8.61-72,33.5-72h3.62l4.09,0,7.39,0h6.13c41.59,0,41.59,2.71,41.59,72,0,8.06.72,15.67,1.41,23,1.51,16.08,2.82,30-5.06,38.63C109.86,214.4,97.93,217.67,78.71,217.67Z"/><path d="M78.33,74.21c21.24,0,31.06.92,36,9.7,5.14,9.22,5.14,27.89,5.14,61.79,0,8.08.72,15.7,1.41,23.07,1.5,16,2.8,29.75-4.93,38.25-6.3,6.92-18.12,10.15-37.19,10.15-26.33,0-41.45-3.57-49-11.59-8-8.48-7.27-22-6.31-39.18.35-6.22.74-13.27.74-20.7,0-34,2.26-52.52,7.54-61.78,5.16-9,13.43-9.71,25.46-9.71h3.62l4.09,0,7.39,0h6.13m0-1c-4.1,0-8.59,0-13.52,0-2.72,0-5.29,0-7.71,0-24.87,0-34,3.07-34,72.5,0,46.18-14.92,72.47,55.61,72.47,59.77,0,41.71-32.44,41.71-72.47,0-69.42,0-72.5-42.09-72.5Z"/><path class="cls-6" d="M60,128.17a29.15,29.15,0,0,1-17.07-5.61c-6.73-4.84-15.06-12.49-16.48-21.48a67.54,67.54,0,0,0-3.72-12.43c-2.48-6.73-4.83-13.09-2.1-17,2.13-3.06,7.28-4.54,15.74-4.54,2.85,0,6.14.17,9.78.51.73.07,1.43.1,2.1.1H95.15c.72,0,1.47,0,2.24-.12,4.12-.41,7.8-.62,10.95-.62,8.41,0,13.48,1.46,15.5,4.45,2.57,3.82.06,10-2.6,16.61-1.74,4.29-3.53,8.73-4.21,13-1.42,9-9.74,16.64-16.48,21.48a29.15,29.15,0,0,1-17.07,5.61Z"/><path d="M108.34,67.48c8.23,0,13.16,1.38,15.08,4.23,2.42,3.6,0,9.69-2.65,16.15-1.75,4.32-3.55,8.78-4.24,13.15-1.39,8.82-9.62,16.37-16.28,21.15a28.66,28.66,0,0,1-16.77,5.51H60a28.66,28.66,0,0,1-16.77-5.51c-6.66-4.78-14.89-12.33-16.28-21.15A67.92,67.92,0,0,0,23.2,88.47C20.76,81.87,18.46,75.63,21,71.93c2-2.91,7-4.33,15.33-4.33,2.84,0,6.11.17,9.73.51.74.07,1.46.1,2.15.1H95.15c.74,0,1.5,0,2.29-.12,4.1-.41,7.77-.62,10.9-.62h0m0-1c-3.12,0-6.77.2-11,.62-.72.07-1.46.11-2.19.11H48.24c-.68,0-1.38,0-2.06-.1-3.73-.35-7-.52-9.82-.52-29.84,0-13,18.42-10.41,34.56h0C27.39,110.3,35.78,118,42.63,123A29.63,29.63,0,0,0,60,128.67H83.47a29.63,29.63,0,0,0,17.36-5.7c6.85-4.92,15.24-12.66,16.68-21.81,2.53-16,21-34.68-9.17-34.68Z"/><path class="cls-1" d="M100.08,404.06H90.43c-4.15,0-7.52-4.88-7.52-10.91h0c0-6-2.22-10.91,7.52-10.91h9.65c8.32,0,7.52,4.88,7.52,10.91h0C107.6,399.17,104.24,404.06,100.08,404.06Z"/><path class="cls-7" d="M57,407.43c-1.28-.08-2.6-.13-3.92-.1h-.53c-3.57,0-7.48.14-8.68-2.87l-.55-1.59c0-1.19.45-1.64,9.23-.73.9.09-.91,0,0,0h0c8.37.7,12-2.52,12.69,1.92l-.89,2C62.66,407.41,59.31,407.57,57,407.43Z"/><path class="cls-7" d="M98.55,406.65c-1.28-.08-2.6-.13-3.92-.1h-.53c-3.57,0-7.48.14-8.68-2.87l-.55-1.59c0-1.19.45-1.64,9.23-.73.9.09-.91,0,0,0h0c8.37.7,12-2.52,12.69,1.92l-.89,2C104.16,406.63,100.81,406.79,98.55,406.65Z"/></g></g></svg>